<?xml version="1.0" encoding="utf-8"?>
<!-- Generator: Adobe Illustrator 24.1.3, SVG Export Plug-In . SVG Version: 6.00 Build 0)  -->
<svg version="1.1" id="Capa_1" xmlns="http://www.w3.org/2000/svg" xmlns:xlink="http://www.w3.org/1999/xlink" x="0px" y="0px"
	 viewBox="0 0 54 54" style="enable-background:new 0 0 54 54;" xml:space="preserve">
<style type="text/css">
	.st0{fill:#E82663;stroke:#E82663;stroke-width:0.5;stroke-miterlimit:10;}
</style>
<path class="st0" d="M51.2,21h-5c-0.8,0-1.5-0.5-1.8-1.2c-0.3-0.7-0.2-1.6,0.4-2.1l3.6-3.6c0.5-0.5,0.8-1.3,0.8-2
	c0-0.7-0.3-1.5-0.8-2l-4.6-4.5c-1.1-1-2.8-1-3.9,0l-3.6,3.6c-0.5,0.6-1.4,0.7-2.1,0.4c-0.7-0.3-1.2-1-1.2-1.8v-5
	C33,1.2,31.8,0,30.2,0h-6.4C22.2,0,21,1.2,21,2.8v5c0,0.8-0.5,1.5-1.2,1.8c-0.7,0.3-1.6,0.2-2.1-0.4l-3.6-3.6c-1.1-1-2.8-1-3.9,0
	l-4.6,4.6c-0.5,0.5-0.8,1.3-0.8,2c0,0.7,0.3,1.5,0.8,2l3.6,3.5c0.8,0.8,0.8,2,0,2.7C8.8,20.8,8.3,21,7.8,21H2.8
	C1.2,21,0,22.2,0,23.8v6.4C0,31.8,1.2,33,2.8,33h5.1c1.1,0,1.9,0.9,1.9,1.9c0,0.5-0.2,1-0.6,1.4l-3.6,3.6c-1.1,1.1-1.1,2.8,0,3.9
	l4.6,4.5c1.1,1,2.8,1,3.9,0l3.6-3.6c0.8-0.8,2-0.8,2.7,0c0.4,0.4,0.6,0.9,0.6,1.4v5c0,1.5,1.2,2.8,2.7,2.8c0,0,0,0,0,0h6.4
	c1.5,0,2.8-1.2,2.8-2.8v-5c0-0.8,0.5-1.5,1.2-1.8c0.7-0.3,1.6-0.2,2.1,0.4l3.6,3.6c1.1,1,2.8,1,3.9,0l4.6-4.5c1.1-1.1,1.1-2.8,0-3.9
	l-3.6-3.6c-0.6-0.5-0.7-1.4-0.4-2.1c0.3-0.8,1-1.3,1.8-1.2h5c1.5,0,2.8-1.2,2.8-2.7c0,0,0,0,0,0v-6.4C54,22.2,52.8,21,51.2,21z
	 M52,30.2c0,0.4-0.3,0.8-0.8,0.8h-5c-2.2,0-3.9,1.8-3.9,3.9c0,1,0.4,2.1,1.2,2.8l3.6,3.6c0.3,0.3,0.3,0.8,0,1.1c0,0,0,0,0,0L42.4,47
	c-0.3,0.3-0.8,0.3-1.1,0c0,0,0,0,0,0l-3.6-3.6c-1.5-1.5-4-1.5-5.6,0c-0.7,0.7-1.1,1.7-1.2,2.7v5c0,0.4-0.3,0.8-0.8,0.8h-6.4
	c-0.4,0-0.8-0.3-0.8-0.8v-5c0-1.6-0.9-3-2.4-3.6c-0.5-0.2-1-0.3-1.6-0.3c-1,0-2,0.4-2.8,1.2L12.7,47c-0.3,0.3-0.8,0.3-1.1,0
	c0,0,0,0,0,0l-4.5-4.6c-0.3-0.3-0.3-0.8,0-1.1c0,0,0,0,0,0l3.6-3.6c1.5-1.5,1.5-4,0-5.6C9.9,31.4,8.9,31,7.8,31H2.8
	C2.3,31,2,30.7,2,30.2l0,0v-6.4C2,23.3,2.3,23,2.8,23c0,0,0,0,0,0h5.1c2.2,0,3.9-1.8,3.9-3.9c0-1-0.4-2.1-1.2-2.8l-3.6-3.6
	c-0.3-0.3-0.3-0.8,0-1.1c0,0,0,0,0,0l4.6-4.5c0.3-0.3,0.8-0.3,1.1,0c0,0,0,0,0,0l3.6,3.6c1.5,1.5,4,1.5,5.6,0
	C22.6,9.9,23,8.9,23,7.8v-5C23,2.3,23.3,2,23.8,2l0,0h6.4C30.7,2,31,2.3,31,2.8c0,0,0,0,0,0v5c0,2.2,1.8,3.9,3.9,3.9
	c1,0,2.1-0.4,2.8-1.2l3.6-3.6c0.3-0.3,0.8-0.3,1.1,0c0,0,0,0,0,0l4.6,4.6c0.3,0.3,0.3,0.8,0,1.1c0,0,0,0,0,0l-3.6,3.6
	c-1.5,1.5-1.5,4,0,5.6c0.7,0.7,1.7,1.1,2.7,1.1h5c0.4,0,0.8,0.3,0.8,0.8L52,30.2z"/>
<path class="st0" d="M27,18c-5,0-9,4-9,9s4,9,9,9s9-4,9-9S32,18,27,18z M27,34c-3.9,0-7-3.1-7-7s3.1-7,7-7s7,3.1,7,7S30.9,34,27,34
	L27,34z"/>
</svg>
