<svg id="Icons" xmlns="http://www.w3.org/2000/svg" viewBox="0 0 512.02 512"><defs><style>.cls-1{fill:#e82663;}</style></defs><path class="cls-1" d="M464.09,213.33l40.67-42.46a25,25,0,0,0-8-40.66l-61.6-26V34.13A34.13,34.13,0,0,0,401.07,0H110.93A34.13,34.13,0,0,0,76.8,34.13v70.11l-61.62,26a25.05,25.05,0,0,0-8,40.56l40.76,42.56L7.22,255.77a25.08,25.08,0,0,0,8,40.66l36,15.19V412.16a24.88,24.88,0,0,0,15.36,22.91l179.63,74.8a23.71,23.71,0,0,0,9.89,2.13,22.62,22.62,0,0,0,9.38-2l180-74.9a24.88,24.88,0,0,0,15.36-22.91V311.62l36-15.18a25.1,25.1,0,0,0,8.08-40.59ZM256,289.36l-174.87-76L140,187.73H372l58.88,25.6ZM490.15,145.92a7.75,7.75,0,0,1,4.63,5.73,8.05,8.05,0,0,1-2.24,7.31l-42.32,44.18L411,186.08A34.06,34.06,0,0,0,435.2,153.6V122.77ZM110.93,17.07H401.07a17.06,17.06,0,0,1,17.06,17.06V153.6a17.06,17.06,0,0,1-17.06,17.07H110.93A17.06,17.06,0,0,1,93.87,153.6V34.13A17.06,17.06,0,0,1,110.93,17.07ZM17.22,151.66a7.71,7.71,0,0,1,4.62-5.72l55-23.17V153.6A34.07,34.07,0,0,0,101,186.09L61.75,203.15,19.38,158.87A7.93,7.93,0,0,1,17.22,151.66Zm0,123.32a8,8,0,0,1,2.22-7.31l42.33-44.1,179.07,77.85-48.19,46.2a7.56,7.56,0,0,1-8.33,1.71L21.85,280.75A7.76,7.76,0,0,1,17.23,275Zm56,144.37a7.76,7.76,0,0,1-4.91-7.19V318.82L177.67,365a24.6,24.6,0,0,0,9.65,2,24.27,24.27,0,0,0,17.31-7.22l42.84-41.07V491.9Zm370.55-7.19a7.75,7.75,0,0,1-4.89,7.17L264.53,491.91V318.69l42.67,41a24.51,24.51,0,0,0,27.12,5.4l109.41-46.23Zm51-137.19a7.74,7.74,0,0,1-4.62,5.73L327.68,349.28a7.68,7.68,0,0,1-8.49-1.85l-48-46.08,179.06-77.78,42.4,44.22a7.91,7.91,0,0,1,2.14,7.19Z" transform="translate(0.01 0)"/><path class="cls-1" d="M179.2,136.53a17.06,17.06,0,0,1-17.07-17.06,8.53,8.53,0,1,0-17.06,0A34.13,34.13,0,1,0,179.2,85.33a17.07,17.07,0,1,1,17.07-17.06,8.53,8.53,0,1,0,17.06,0A34.13,34.13,0,1,0,179.2,102.4a17.07,17.07,0,1,1,0,34.13Z" transform="translate(0.01 0)"/><path class="cls-1" d="M238.93,153.6H256a34.13,34.13,0,0,0,34.13-34.13V68.27A34.14,34.14,0,0,0,256,34.13H238.93a8.53,8.53,0,0,0-8.53,8.54v102.4A8.53,8.53,0,0,0,238.93,153.6Zm8.54-102.4H256a17.07,17.07,0,0,1,17.07,17.07v51.2A17.06,17.06,0,0,1,256,136.53h-8.53Z" transform="translate(0.01 0)"/><path class="cls-1" d="M315.73,153.6a8.53,8.53,0,0,0,8.54-8.53V117.44l27.57,33.1A8.54,8.54,0,1,0,365,139.6L326.83,93.87,365,48.14A8.55,8.55,0,1,0,351.82,37.2L324.27,70.29V42.67a8.54,8.54,0,1,0-17.07,0v102.4A8.53,8.53,0,0,0,315.73,153.6Z" transform="translate(0.01 0)"/></svg>