<svg id="Isolation_Mode" data-name="Isolation Mode" xmlns="http://www.w3.org/2000/svg" viewBox="0 0 511.98 509"><defs><style>.cls-1{fill:#e82663;}</style></defs><g id="Layer_1" data-name="Layer 1"><circle class="cls-1" cx="266.99" cy="243.82" r="10.04"/><path class="cls-1" d="M398.48,118a42.72,42.72,0,1,0,0,60.43A42.45,42.45,0,0,0,398.48,118Zm-14.2,46.24a22.66,22.66,0,1,1,0-32A22.68,22.68,0,0,1,384.28,164.27Z" transform="translate(-0.02 -1.49)"/><path class="cls-1" d="M125.41,411.45A10,10,0,0,0,112,416l-12,24a33.15,33.15,0,0,1-27.3,18.22l-13.91.95a6,6,0,0,1-6.34-6.34l1-13.91a33.12,33.12,0,0,1,18.21-27.3l24-12a10,10,0,0,0-8.95-18l-24,12a53.29,53.29,0,0,0-29.31,43.9l-1,13.9a26,26,0,0,0,26,27.81c.59,0,1.18,0,1.78-.06l13.9-.95a53.28,53.28,0,0,0,43.9-29.3l12-24A10,10,0,0,0,125.41,411.45Z" transform="translate(-0.02 -1.49)"/><path class="cls-1" d="M505.07,8.18a23.24,23.24,0,0,0-17.79-6.64l-9.35.6a302.94,302.94,0,0,0-215.22,111l-22,27.09-57.58-1.69h-.3A169.85,169.85,0,0,0,61.94,188.61l-59,59a10,10,0,0,0,6.58,17.12l124.85,6.42-5.09,6.27a10,10,0,0,0-1,11.12q2.94,5.4,6.15,10.62l-29.61,35.15a10,10,0,0,0-1.4,10.76,130.81,130.81,0,0,0,62.76,62.76,10,10,0,0,0,10.62-1.27c6.38-5.18,13.74-11.31,20.85-17.25,5.07-4.23,10.25-8.56,15.1-12.55q4.33,2.63,8.79,5.05a10,10,0,0,0,11-.89l6.84-5.31L245.77,501a10,10,0,0,0,17.13,6.59l59-59A169.86,169.86,0,0,0,372,327.67v-55l23.27-18.06A301.71,301.71,0,0,0,511.73,30.76l.24-4.89A23.27,23.27,0,0,0,505.07,8.18ZM33.12,245.82l43-43a149.93,149.93,0,0,1,106.55-44.2l42.08,1.24-74.71,92ZM184.77,373.87c-5.24,4.38-10.61,8.86-15.6,13a110.36,110.36,0,0,1-44.73-44.69l21.68-25.73a232.27,232.27,0,0,0,21.48,24.92l0,0h0a233.93,233.93,0,0,0,27.64,23.76C191.81,368,188.26,371,184.77,373.87Zm167.11-46.2a149.91,149.91,0,0,1-44.2,106.7l-43,43-6-116.79,93.2-72.33v39.41ZM491.68,29.78a281.63,281.63,0,0,1-108.77,209L225.45,361a212.43,212.43,0,0,1-36.37-26.85L242.17,281a10,10,0,1,0-14.2-14.2l-53,53a212.9,212.9,0,0,1-25.74-35.1L278.3,125.8A282.75,282.75,0,0,1,479.21,22.18l9.34-.6a3.16,3.16,0,0,1,3.37,3.31Z" transform="translate(-0.02 -1.49)"/></g></svg>