<svg id="Isolation_Mode" data-name="Isolation Mode" xmlns="http://www.w3.org/2000/svg" viewBox="0 0 352 432"><defs><style>.cls-1{fill:#e82663;}</style></defs><g id="ARC"><path class="cls-1" d="M120,120c-21.68,0-40-18.32-40-40s18.32-40,40-40a8,8,0,0,1,0,16,24,24,0,0,0,0,48,8,8,0,0,1,0,16Z" transform="translate(-80 -40)"/></g><g id="LINE"><path class="cls-1" d="M88,440a8,8,0,0,1-8-8V80a8,8,0,0,1,16,0V432A8,8,0,0,1,88,440Z" transform="translate(-80 -40)"/></g><g id="ARC-2" data-name="ARC"><path class="cls-1" d="M120,472a40,40,0,0,1-40-40,8,8,0,0,1,16,0,24,24,0,0,0,24,24,8,8,0,0,1,0,16Z" transform="translate(-80 -40)"/></g><g id="LINE-2" data-name="LINE"><path class="cls-1" d="M136,120H120a8,8,0,0,1,0-16h16a8,8,0,0,1,0,16Z" transform="translate(-80 -40)"/></g><g id="LINE-3" data-name="LINE"><path class="cls-1" d="M221.34,88H136a8,8,0,0,1,0-16h85.34a8,8,0,1,1,0,16Z" transform="translate(-80 -40)"/></g><g id="LINE-4" data-name="LINE"><path class="cls-1" d="M221.33,198.21a8,8,0,0,1-4.72-1.55l-42.67-31.23a8,8,0,1,1,9.44-12.9l42.68,31.23a8,8,0,0,1-4.73,14.45Z" transform="translate(-80 -40)"/></g><g id="LINE-5" data-name="LINE"><path class="cls-1" d="M136,198.21a8,8,0,0,1-4.74-14.45l42.67-31.23a8,8,0,1,1,9.44,12.9l-42.66,31.23a7.88,7.88,0,0,1-4.71,1.55Z" transform="translate(-80 -40)"/></g><g id="LINE-6" data-name="LINE"><path class="cls-1" d="M221.34,198.21a8,8,0,0,1-8-8V80a8,8,0,0,1,16,0V190.21A8,8,0,0,1,221.34,198.21Z" transform="translate(-80 -40)"/></g><g id="LINE-7" data-name="LINE"><path class="cls-1" d="M136,198.21a8,8,0,0,1-8-8V80a8,8,0,0,1,16,0V190.21A8,8,0,0,1,136,198.21Z" transform="translate(-80 -40)"/></g><g id="ARC-3" data-name="ARC"><path class="cls-1" d="M392,472a8,8,0,0,1,0-16,24,24,0,0,0,24-24,8,8,0,0,1,16,0A40,40,0,0,1,392,472Z" transform="translate(-80 -40)"/></g><g id="LINE-8" data-name="LINE"><path class="cls-1" d="M424,440a8,8,0,0,1-8-8V144a8,8,0,0,1,16,0V432A8,8,0,0,1,424,440Z" transform="translate(-80 -40)"/></g><g id="ARC-4" data-name="ARC"><path class="cls-1" d="M424,152a8,8,0,0,1-8-8,24,24,0,0,0-24-24,8,8,0,0,1,0-16,40,40,0,0,1,40,40A8,8,0,0,1,424,152Z" transform="translate(-80 -40)"/></g><g id="LINE-9" data-name="LINE"><path class="cls-1" d="M392,120a8,8,0,0,1-8-8V80a8,8,0,0,1,16,0v32A8,8,0,0,1,392,120Z" transform="translate(-80 -40)"/></g><g id="ARC-5" data-name="ARC"><path class="cls-1" d="M392,88a8,8,0,0,1-8-8,24,24,0,0,0-24-24,8,8,0,0,1,0-16,40,40,0,0,1,40,40A8,8,0,0,1,392,88Z" transform="translate(-80 -40)"/></g><g id="LINE-10" data-name="LINE"><path class="cls-1" d="M392,472H120a8,8,0,0,1,0-16H392a8,8,0,0,1,0,16Z" transform="translate(-80 -40)"/></g><g id="LINE-11" data-name="LINE"><path class="cls-1" d="M392,120H253.34a8,8,0,0,1,0-16H392a8,8,0,0,1,0,16Z" transform="translate(-80 -40)"/></g><g id="LINE-12" data-name="LINE"><path class="cls-1" d="M360,56H120a8,8,0,0,1,0-16H360a8,8,0,0,1,0,16Z" transform="translate(-80 -40)"/></g></svg>