<svg id="Layer_1" data-name="Layer 1" xmlns="http://www.w3.org/2000/svg" viewBox="0 0 231.52 41.61"><defs><style>.cls-1{fill:#316fea;}</style></defs><title>Q_Logo_Text</title><path class="cls-1" d="M6.87,27.83c0-11.43,8.22-20.38,20.66-20.38s20.66,9,20.66,20.38a21.73,21.73,0,0,1-2.92,11l3.49,3L43.07,48.5l-3.83-3.38a21.74,21.74,0,0,1-11.71,3.21C15.09,48.33,6.87,39.43,6.87,27.83Zm10,0c0,6.65,4.39,11.49,10.64,11.49a10.13,10.13,0,0,0,4.22-.85L28.49,35.6l5.57-6.53,3.44,3a14.64,14.64,0,0,0,.67-4.23c0-6.47-4.33-11.37-10.64-11.37S16.89,21.36,16.89,27.83Z" transform="translate(-6.87 -6.89)"/><path class="cls-1" d="M60.58,35.27c.23,2.64,2.76,4.89,6.25,4.89A7.62,7.62,0,0,0,73,37l6.2,4.79c-.85,1.74-4.9,6.53-12.56,6.53C56.92,48.33,51,41.63,51,32.9s5.86-15.6,14.53-15.6c9.4,0,14.53,6,14.53,16.11,0,.56,0,1.18-.06,1.86Zm.28-6h9.57a4.53,4.53,0,0,0-4.78-4.4A4.68,4.68,0,0,0,60.86,29.3Z" transform="translate(-6.87 -6.89)"/><path class="cls-1" d="M101.12,30c0-2.76-1.63-4.22-3.89-4.22a3.91,3.91,0,0,0-4,4.22V47.6h-9.4V18H93v3a8.83,8.83,0,0,1,7.43-3.78c9.23,0,10.13,7.89,10.13,13.91V47.6h-9.4Z" transform="translate(-6.87 -6.89)"/><path class="cls-1" d="M136.42,38l2.48,7.71a15.4,15.4,0,0,1-8.67,2.65c-9.4,0-16-6.42-16-15.49s6.87-15.54,16-15.54A14.93,14.93,0,0,1,139,20L136.42,28a9.27,9.27,0,0,0-5.91-2.2c-4.45,0-6.93,3.1-6.93,7a6.89,6.89,0,0,0,7.27,7.26A9.16,9.16,0,0,0,136.42,38Z" transform="translate(-6.87 -6.89)"/><path class="cls-1" d="M155.51,17.3c9.51,0,16.21,6.53,16.21,15.49s-6.86,15.54-16.21,15.54-16-6.53-16-15.43S146.39,17.3,155.51,17.3Zm0,22.75c3.88,0,6.81-3,6.81-7.26s-3-7.21-6.81-7.21-6.65,3-6.65,7.32S151.68,40.05,155.51,40.05Z" transform="translate(-6.87 -6.89)"/><path class="cls-1" d="M196.61,45.29a11.14,11.14,0,0,1-8,3c-8.51,0-14.48-6.42-14.48-15.49s5.41-15.54,14-15.54a10.93,10.93,0,0,1,7.88,3V6.89h9.4V47.6h-8.78Zm-6.7-19.71c-3.83,0-6.36,3-6.36,7.32s2.59,7.21,6.36,7.21c4.05,0,6.36-3.27,6.36-7.21C196.27,28.23,193.63,25.58,189.91,25.58Z" transform="translate(-6.87 -6.89)"/><path class="cls-1" d="M219,35.27c.23,2.64,2.76,4.89,6.25,4.89a7.66,7.66,0,0,0,6.2-3.15l6.19,4.79c-.85,1.74-4.9,6.53-12.56,6.53-9.74,0-15.71-6.7-15.71-15.43s5.86-15.6,14.53-15.6c9.4,0,14.53,6,14.53,16.11,0,.56,0,1.18-.06,1.86Zm.28-6h9.58A4.54,4.54,0,0,0,224,24.9,4.68,4.68,0,0,0,219.24,29.3Z" transform="translate(-6.87 -6.89)"/></svg>