<svg id="Layer_1" data-name="Layer 1" xmlns="http://www.w3.org/2000/svg" viewBox="0 0 426 383.4"><defs><style>.cls-1{fill:#e82663;}</style></defs><path class="cls-1" d="M372.75,21.63H53.25A53.3,53.3,0,0,0,0,74.88v276.9A53.3,53.3,0,0,0,53.25,405h319.5A53.3,53.3,0,0,0,426,351.78V74.88A53.3,53.3,0,0,0,372.75,21.63ZM53.25,42.93h319.5A32,32,0,0,1,404.7,74.88V85.53H21.3V74.88A32,32,0,0,1,53.25,42.93Zm319.5,340.8H53.25a32,32,0,0,1-31.95-32V106.83H404.7v245A32,32,0,0,1,372.75,383.73Z" transform="translate(0 -21.63)"/><path class="cls-1" d="M138.45,170.73a42.65,42.65,0,0,0-42.6,42.6v95.85a10.65,10.65,0,0,0,21.3,0V255.93h42.6v53.25a10.65,10.65,0,0,0,21.3,0V213.33A42.65,42.65,0,0,0,138.45,170.73Zm-21.3,63.9v-21.3a21.3,21.3,0,0,1,42.6,0v21.3Z" transform="translate(0 -21.63)"/><path class="cls-1" d="M245,170.73H213a10.65,10.65,0,0,0-10.65,10.65v127.8a10.65,10.65,0,0,0,21.3,0V255.93H245a42.6,42.6,0,1,0,0-85.2Zm0,63.9h-21.3V192H245a21.3,21.3,0,1,1,0,42.6Z" transform="translate(0 -21.63)"/><path class="cls-1" d="M319.5,170.73a10.65,10.65,0,0,0-10.65,10.65v127.8a10.65,10.65,0,1,0,21.3,0V181.38a10.65,10.65,0,0,0-10.65-10.65Z" transform="translate(0 -21.63)"/></svg>