<svg id="Layer_1" data-name="Layer 1" xmlns="http://www.w3.org/2000/svg" viewBox="0 0 426.67 405.33"><defs><style>.cls-1{fill:#189788;}</style></defs><path class="cls-1" d="M416,53.33H96a53.4,53.4,0,0,0-53.33,53.34V341.33A53.4,53.4,0,0,0,96,394.67h96V448a10.67,10.67,0,0,0,16.16,9.15l104.13-62.48H416a53.4,53.4,0,0,0,53.33-53.34V106.67A53.4,53.4,0,0,0,416,53.33Zm32,288a32,32,0,0,1-32,32H309.33a10.73,10.73,0,0,0-5.49,1.52l-90.51,54.31V384a10.66,10.66,0,0,0-10.65-10.67H96a32,32,0,0,1-32-32V106.67a32,32,0,0,1,32-32H416a32,32,0,0,1,32,32Z" transform="translate(-42.67 -53.33)"/><path class="cls-1" d="M256,117.33A106.67,106.67,0,1,0,362.67,224,106.67,106.67,0,0,0,256,117.33Zm0,192A85.33,85.33,0,1,1,341.33,224,85.33,85.33,0,0,1,256,309.33Z" transform="translate(-42.67 -53.33)"/><path class="cls-1" d="M224,213.33a10.66,10.66,0,0,0,10.67-10.65h0V192a10.67,10.67,0,0,0-21.34,0v10.67A10.66,10.66,0,0,0,224,213.33Z" transform="translate(-42.67 -53.33)"/><path class="cls-1" d="M288,181.33A10.67,10.67,0,0,0,277.33,192h0v10.67a10.67,10.67,0,0,0,21.34,0V192A10.67,10.67,0,0,0,288,181.33Z" transform="translate(-42.67 -53.33)"/><path class="cls-1" d="M281.51,252.41a41.52,41.52,0,0,1-51,0,10.66,10.66,0,1,0-13,16.91,62.19,62.19,0,0,0,77,0,10.66,10.66,0,1,0-13-16.91Z" transform="translate(-42.67 -53.33)"/></svg>