<svg id="Layer_1" data-name="Layer 1" xmlns="http://www.w3.org/2000/svg" viewBox="0 0 638.44 638.41"><defs><style>.cls-1{fill:#3f51b5;}</style></defs><path class="cls-1" d="M340.2,117c-123.35.14-223.31,100.1-223.45,223.45a221.3,221.3,0,0,0,19.6,90.84,16,16,0,1,0,29.14-13,189.31,189.31,0,0,1-16.81-77.81c0-105.78,85.74-191.53,191.52-191.53s191.52,85.75,191.52,191.53a189.51,189.51,0,0,1-16.81,77.81,16,16,0,1,0,29.15,13,221.29,221.29,0,0,0,19.59-90.84C563.5,217.1,463.55,117.14,340.2,117Z" transform="translate(-20.99 -21.24)"/><path class="cls-1" d="M340.2,21.24C164.31,20.84,21.4,163.1,21,339a318.55,318.55,0,0,0,55.7,180.66,16,16,0,0,0,26.83-17.29c-.16-.25-.33-.49-.5-.73a284.65,284.65,0,0,1-50.1-161.18c0-158.67,128.62-287.29,287.28-287.29S627.49,181.78,627.49,340.45a284.67,284.67,0,0,1-50.12,161.18,16,16,0,0,0,25.83,18.75c.18-.24.34-.48.5-.73C703.07,374.51,666,176.3,520.84,76.93A318.43,318.43,0,0,0,340.2,21.24Z" transform="translate(-20.99 -21.24)"/><path class="cls-1" d="M412.37,445.61a127.66,127.66,0,1,0-144.35,0A175.76,175.76,0,0,0,148.67,611.77V643.7a16,16,0,0,0,16,16H515.76a16,16,0,0,0,16-16V611.77A175.73,175.73,0,0,0,412.37,445.61ZM244.44,340.45a95.76,95.76,0,1,1,95.76,95.76A95.76,95.76,0,0,1,244.44,340.45ZM499.81,627.74H180.6v-16A143.79,143.79,0,0,1,324.24,468.14h31.92A143.8,143.8,0,0,1,499.81,611.78Z" transform="translate(-20.99 -21.24)"/></svg>